<mxfile host="app.diagrams.net" modified="2024-05-27T23:42:38.083Z" agent="Mozilla/5.0 (X11; Linux x86_64) AppleWebKit/537.36 (KHTML, like Gecko) Chrome/125.0.0.0 Safari/537.36" etag="3fJTINvkQiS1JElqw30-" version="24.4.0" type="device">
  <diagram name="Page-1" id="SXzLLDAEIAwVD7ovXxk8">
    <mxGraphModel dx="1434" dy="2016" grid="1" gridSize="10" guides="1" tooltips="1" connect="1" arrows="1" fold="1" page="1" pageScale="1" pageWidth="850" pageHeight="1100" math="0" shadow="0">
      <root>
        <mxCell id="0" />
        <mxCell id="1" parent="0" />
        <mxCell id="ZdfX0ITvt3L58vBr62aG-1" value="VPC" style="sketch=0;outlineConnect=0;gradientColor=none;html=1;whiteSpace=wrap;fontSize=12;fontStyle=0;shape=mxgraph.aws4.group;grIcon=mxgraph.aws4.group_vpc;strokeColor=#879196;fillColor=none;verticalAlign=top;align=left;spacingLeft=30;fontColor=#879196;dashed=0;" vertex="1" parent="1">
          <mxGeometry x="40" y="40" width="760" height="550" as="geometry" />
        </mxCell>
        <mxCell id="ZdfX0ITvt3L58vBr62aG-2" value="Public Subnet A" style="sketch=0;outlineConnect=0;html=1;whiteSpace=wrap;fontSize=12;fontStyle=0;shape=mxgraph.aws4.group;grIcon=mxgraph.aws4.group_subnet;strokeColor=#d79b00;fillColor=#ffe6cc;verticalAlign=top;align=left;spacingLeft=30;dashed=0;" vertex="1" parent="1">
          <mxGeometry x="80" y="80" width="200" height="230" as="geometry" />
        </mxCell>
        <mxCell id="ZdfX0ITvt3L58vBr62aG-3" value="Public Subnet B" style="sketch=0;outlineConnect=0;html=1;whiteSpace=wrap;fontSize=12;fontStyle=0;shape=mxgraph.aws4.group;grIcon=mxgraph.aws4.group_subnet;strokeColor=#d79b00;fillColor=#ffe6cc;verticalAlign=top;align=left;spacingLeft=30;dashed=0;" vertex="1" parent="1">
          <mxGeometry x="320" y="80" width="200" height="230" as="geometry" />
        </mxCell>
        <mxCell id="ZdfX0ITvt3L58vBr62aG-4" value="Public Subnet C" style="sketch=0;outlineConnect=0;html=1;whiteSpace=wrap;fontSize=12;fontStyle=0;shape=mxgraph.aws4.group;grIcon=mxgraph.aws4.group_subnet;strokeColor=#d79b00;fillColor=#ffe6cc;verticalAlign=top;align=left;spacingLeft=30;dashed=0;" vertex="1" parent="1">
          <mxGeometry x="560" y="80" width="200" height="230" as="geometry" />
        </mxCell>
        <mxCell id="ZdfX0ITvt3L58vBr62aG-5" value="Private Subnet A" style="sketch=0;outlineConnect=0;html=1;whiteSpace=wrap;fontSize=12;fontStyle=0;shape=mxgraph.aws4.group;grIcon=mxgraph.aws4.group_subnet;strokeColor=#666666;fillColor=#f5f5f5;verticalAlign=top;align=left;spacingLeft=30;dashed=0;fontColor=#333333;" vertex="1" parent="1">
          <mxGeometry x="80" y="330" width="200" height="230" as="geometry" />
        </mxCell>
        <mxCell id="ZdfX0ITvt3L58vBr62aG-6" value="Private Subnet B" style="sketch=0;outlineConnect=0;html=1;whiteSpace=wrap;fontSize=12;fontStyle=0;shape=mxgraph.aws4.group;grIcon=mxgraph.aws4.group_subnet;strokeColor=#666666;fillColor=#f5f5f5;verticalAlign=top;align=left;spacingLeft=30;dashed=0;fontColor=#333333;" vertex="1" parent="1">
          <mxGeometry x="320" y="330" width="200" height="230" as="geometry" />
        </mxCell>
        <mxCell id="ZdfX0ITvt3L58vBr62aG-7" value="Priavet Subnet C" style="sketch=0;outlineConnect=0;html=1;whiteSpace=wrap;fontSize=12;fontStyle=0;shape=mxgraph.aws4.group;grIcon=mxgraph.aws4.group_subnet;strokeColor=#666666;fillColor=#f5f5f5;verticalAlign=top;align=left;spacingLeft=30;dashed=0;fontColor=#333333;" vertex="1" parent="1">
          <mxGeometry x="560" y="330" width="200" height="230" as="geometry" />
        </mxCell>
        <mxCell id="ZdfX0ITvt3L58vBr62aG-8" value="MYSQL DB" style="rounded=0;whiteSpace=wrap;html=1;" vertex="1" parent="1">
          <mxGeometry x="360" y="440" width="120" height="60" as="geometry" />
        </mxCell>
        <mxCell id="ZdfX0ITvt3L58vBr62aG-9" value="EC2 1" style="sketch=0;points=[[0,0,0],[0.25,0,0],[0.5,0,0],[0.75,0,0],[1,0,0],[0,1,0],[0.25,1,0],[0.5,1,0],[0.75,1,0],[1,1,0],[0,0.25,0],[0,0.5,0],[0,0.75,0],[1,0.25,0],[1,0.5,0],[1,0.75,0]];outlineConnect=0;fontColor=#232F3E;fillColor=#ED7100;strokeColor=#ffffff;dashed=0;verticalLabelPosition=bottom;verticalAlign=top;align=center;html=1;fontSize=12;fontStyle=0;aspect=fixed;shape=mxgraph.aws4.resourceIcon;resIcon=mxgraph.aws4.ec2;" vertex="1" parent="1">
          <mxGeometry x="141" y="156" width="78" height="78" as="geometry" />
        </mxCell>
        <mxCell id="ZdfX0ITvt3L58vBr62aG-12" style="edgeStyle=orthogonalEdgeStyle;rounded=0;orthogonalLoop=1;jettySize=auto;html=1;" edge="1" parent="1" source="ZdfX0ITvt3L58vBr62aG-10" target="ZdfX0ITvt3L58vBr62aG-11">
          <mxGeometry relative="1" as="geometry" />
        </mxCell>
        <mxCell id="ZdfX0ITvt3L58vBr62aG-10" value="ALB Load Balancer" style="outlineConnect=0;dashed=0;verticalLabelPosition=bottom;verticalAlign=top;align=center;html=1;shape=mxgraph.aws3.application_load_balancer;fillColor=#F58534;gradientColor=none;" vertex="1" parent="1">
          <mxGeometry x="385.5" y="-32" width="69" height="72" as="geometry" />
        </mxCell>
        <mxCell id="ZdfX0ITvt3L58vBr62aG-13" style="edgeStyle=orthogonalEdgeStyle;rounded=0;orthogonalLoop=1;jettySize=auto;html=1;" edge="1" parent="1" source="ZdfX0ITvt3L58vBr62aG-11" target="ZdfX0ITvt3L58vBr62aG-8">
          <mxGeometry relative="1" as="geometry" />
        </mxCell>
        <mxCell id="ZdfX0ITvt3L58vBr62aG-11" value="EC2 2" style="sketch=0;points=[[0,0,0],[0.25,0,0],[0.5,0,0],[0.75,0,0],[1,0,0],[0,1,0],[0.25,1,0],[0.5,1,0],[0.75,1,0],[1,1,0],[0,0.25,0],[0,0.5,0],[0,0.75,0],[1,0.25,0],[1,0.5,0],[1,0.75,0]];outlineConnect=0;fontColor=#232F3E;fillColor=#ED7100;strokeColor=#ffffff;dashed=0;verticalLabelPosition=bottom;verticalAlign=top;align=center;html=1;fontSize=12;fontStyle=0;aspect=fixed;shape=mxgraph.aws4.resourceIcon;resIcon=mxgraph.aws4.ec2;" vertex="1" parent="1">
          <mxGeometry x="381" y="180" width="78" height="78" as="geometry" />
        </mxCell>
      </root>
    </mxGraphModel>
  </diagram>
</mxfile>
